<?xml version="1.0" encoding="UTF-8" standalone="no"?>
<!-- Created with Inkscape (http://www.inkscape.org/) -->

<svg
   xmlns:dc="http://purl.org/dc/elements/1.1/"
   xmlns:cc="http://creativecommons.org/ns#"
   xmlns:rdf="http://www.w3.org/1999/02/22-rdf-syntax-ns#"
   xmlns:svg="http://www.w3.org/2000/svg"
   xmlns="http://www.w3.org/2000/svg"
   xmlns:sodipodi="http://sodipodi.sourceforge.net/DTD/sodipodi-0.dtd"
   xmlns:inkscape="http://www.inkscape.org/namespaces/inkscape"
   width="34.060638mm"
   height="12.69999mm"
   viewBox="0 0 34.060638 12.69999"
   version="1.1"
   id="svg8"
   inkscape:version="0.92.4 (unknown)"
   sodipodi:docname="fast_truck.svg">
  <defs
     id="defs2" />
  <sodipodi:namedview
     id="base"
     pagecolor="#ffffff"
     bordercolor="#666666"
     borderopacity="1.0"
     inkscape:pageopacity="0.0"
     inkscape:pageshadow="2"
     inkscape:zoom="0.70000001"
     inkscape:cx="443.74552"
     inkscape:cy="56.054815"
     inkscape:document-units="mm"
     inkscape:current-layer="layer1"
     showgrid="false"
     fit-margin-top="0"
     fit-margin-left="0"
     fit-margin-right="0"
     fit-margin-bottom="0"
     inkscape:window-width="1920"
     inkscape:window-height="1016"
     inkscape:window-x="0"
     inkscape:window-y="36"
     inkscape:window-maximized="1" />
  <metadata
     id="metadata5">
    <rdf:RDF>
      <cc:Work
         rdf:about="">
        <dc:format>image/svg+xml</dc:format>
        <dc:type
           rdf:resource="http://purl.org/dc/dcmitype/StillImage" />
        <dc:title></dc:title>
      </cc:Work>
    </rdf:RDF>
  </metadata>
  <g
     inkscape:label="Layer 1"
     inkscape:groupmode="layer"
     id="layer1"
     transform="translate(93.546111,-157.54056)">
    <path
       style="fill:#333333;fill-opacity:1;stroke-width:0.18955226"
       d="m -89.989628,169.74111 c -0.484892,-0.61644 -0.496294,-1.0368 -0.04329,-1.59623 0.691113,-0.85349 2.304165,-0.31847 2.304165,0.76424 0,0.58944 -0.739456,1.33143 -1.326866,1.33143 -0.358834,0 -0.673494,-0.16826 -0.934003,-0.49944 z m 1.509145,-0.46044 c 0.155413,-0.29038 0.15115,-0.46137 -0.01654,-0.66343 -0.531709,-0.64067 -1.521653,-0.0614 -1.133742,0.66343 0.115156,0.21518 0.37397,0.39122 0.575141,0.39122 0.201171,0 0.459985,-0.17604 0.575141,-0.39122 z m 1.713243,0.46044 c -0.484892,-0.61644 -0.496293,-1.0368 -0.04329,-1.59623 0.691113,-0.85349 2.304166,-0.31847 2.304166,0.76424 0,0.58944 -0.739456,1.33143 -1.326867,1.33143 -0.358833,0 -0.673494,-0.16826 -0.934003,-0.49944 z m 1.509145,-0.46044 c 0.155414,-0.29038 0.15115,-0.46137 -0.01654,-0.66343 -0.531709,-0.64067 -1.521652,-0.0614 -1.133742,0.66343 0.115156,0.21518 0.37397,0.39122 0.575141,0.39122 0.201172,0 0.459986,-0.17604 0.575141,-0.39122 z m 9.702861,0.66481 c -0.618484,-0.4332 -0.575893,-1.45132 0.08238,-1.96912 1.20758,-0.94988 2.671431,0.79507 1.581407,1.88509 -0.454446,0.45445 -1.08917,0.48651 -1.663787,0.084 z m 1.277129,-0.54881 c 0.394717,-0.4756 0.160169,-0.95686 -0.466324,-0.95686 -0.391665,0 -0.583479,0.10391 -0.6291,0.34082 -0.07526,0.39079 0.277998,0.89126 0.6291,0.89126 0.130847,0 0.340693,-0.12384 0.466324,-0.27522 z m 1.713529,0.46478 c -1.090022,-1.09002 0.373826,-2.83497 1.581406,-1.88509 0.367215,0.28885 0.503664,0.56928 0.503664,1.03511 0,1.10452 -1.300413,1.63463 -2.08507,0.84998 z m 1.319305,-0.46478 c 0.394717,-0.4756 0.160177,-0.95686 -0.466324,-0.95686 -0.391666,0 -0.583479,0.10391 -0.629101,0.34082 -0.07526,0.39079 0.277999,0.89126 0.629101,0.89126 0.130855,0 0.3407,-0.12384 0.466324,-0.27522 z m 8.158303,0.46478 c -1.090016,-1.09002 0.373833,-2.83497 1.58141,-1.88509 0.367215,0.28885 0.503664,0.56928 0.503664,1.03511 0,1.10452 -1.300417,1.63463 -2.085074,0.84998 z m 1.319309,-0.46478 c 0.394718,-0.4756 0.16017,-0.95686 -0.466322,-0.95686 -0.391665,0 -0.583479,0.10391 -0.6291,0.34082 -0.07526,0.39079 0.277999,0.89126 0.6291,0.89126 0.130845,0 0.34069,-0.12384 0.466322,-0.27522 z m -28.972138,-1.00425 -0.0218,-1.1847 h 3.317165 3.317164 v 0.56865 c 0,0.68986 -0.04458,0.6964 -0.646201,0.0948 -0.301054,-0.30105 -0.687558,-0.47388 -1.05977,-0.47388 -0.372211,0 -0.758716,0.17283 -1.059769,0.47388 -0.537396,0.5374 -0.751094,0.58533 -0.968499,0.21722 -0.20041,-0.33933 -0.887671,-0.6911 -1.350211,-0.6911 -0.604958,0 -1.208941,0.63537 -1.362572,1.43338 -0.132833,0.68997 -0.14536,0.6568 -0.165509,-0.43823 z m 13.652861,0.0948 -0.02694,-1.08993 h 0.869839 0.869831 l -0.490725,0.5832 c -0.269903,0.32076 -0.490732,0.66195 -0.490732,0.75821 0,0.38282 -0.380876,0.1469 -0.406008,-0.25148 -0.01476,-0.23457 -0.08798,-0.0853 -0.162648,0.33171 -0.130632,0.72959 -0.136772,0.71708 -0.162656,-0.33171 z m 13.062521,0.7582 c -0.0094,-0.30167 -0.285028,-0.33171 -3.043151,-0.33171 -1.727498,0 -3.032833,-0.0753 -3.032833,-0.17501 0,-0.0963 -0.220829,-0.43745 -0.490733,-0.75821 l -0.490732,-0.5832 h 1.628046 1.628045 v -3.79104 c 0,-2.52057 0.0667,-3.79105 0.198964,-3.79105 0.480394,0 1.322014,0.6156 1.430034,1.04598 0.104111,0.41481 0.220242,0.47044 0.982102,0.47044 0.475215,0 0.818064,0.0459 0.761889,0.10213 -0.05617,0.0562 0.08557,0.71724 0.31498,1.46903 l 0.41712,1.3669 1.02768,0.13384 c 0.565225,0.0736 1.432848,0.15111 1.92805,0.17223 l 0.900373,0.0384 v 1.48635 c 0,0.86454 0.0793,1.48636 0.18955,1.48636 0.10426,0 0.189557,0.29854 0.189557,0.66343 0,0.59915 -0.05051,0.66272 -0.521273,0.65613 -0.375875,-0.005 -0.627338,-0.17593 -0.901575,-0.61191 -0.830516,-1.32033 -2.189758,-1.10771 -2.780953,0.43501 -0.178661,0.4662 -0.329474,0.69836 -0.33514,0.51592 z m -0.197568,-0.99514 c 0,-0.10722 -0.700326,-0.21335 -1.612341,-0.24433 -1.365328,-0.0464 -1.612342,-0.009 -1.612342,0.24433 0,0.25326 0.247014,0.29069 1.612342,0.24431 0.912015,-0.0309 1.612341,-0.1371 1.612341,-0.24431 z m 0.670417,-1.56671 c 0.334775,-0.23449 0.336846,-1.65275 0.0029,-1.92997 -0.655301,-0.54385 -1.170276,0.77149 -0.668862,1.70839 0.210713,0.39371 0.352785,0.44098 0.666039,0.22158 z m 0.977767,-1.22698 c -0.04535,-0.23579 -0.08416,-0.0875 -0.08626,0.32951 -0.0022,0.41701 0.03503,0.60993 0.08244,0.4287 0.04743,-0.18123 0.04915,-0.52242 0.0036,-0.75821 z m 0.624141,0.23473 c 0,-0.31276 -0.0853,-0.56866 -0.189548,-0.56866 -0.104252,0 -0.189549,0.2559 -0.189549,0.56866 0,0.31276 0.0853,0.56865 0.189549,0.56865 0.104251,0 0.189548,-0.25589 0.189548,-0.56865 z m 0.568657,-0.20074 c 0,-0.20236 -0.0853,-0.36792 -0.18955,-0.36792 -0.104254,0 -0.189551,0.21829 -0.189551,0.48507 0,0.27511 0.08205,0.43436 0.189551,0.36792 0.104253,-0.0644 0.18955,-0.28272 0.18955,-0.48507 z m -4.738801,-0.0836 c 0,-0.15638 -0.127946,-0.28433 -0.284325,-0.28433 -0.156387,0 -0.284332,0.12795 -0.284332,0.28433 0,0.15638 0.127945,0.28433 0.284332,0.28433 0.156379,0 0.284325,-0.12795 0.284325,-0.28433 z m 1.89552,-1.36182 c 0,-0.0713 -0.139186,-0.62579 -0.309306,-1.23208 l -0.309307,-1.10237 h -0.922782 -0.922782 v 1.23209 1.23209 h 1.232088 c 0.677652,0 1.232089,-0.0584 1.232089,-0.12973 z m -9.512913,3.87339 -0.509172,-0.52127 h 1.072621 c 1.018674,0 1.051716,0.0147 0.65694,0.29116 -0.228623,0.16013 -0.48217,0.3947 -0.563441,0.52126 -0.105851,0.16485 -0.292183,0.0823 -0.656948,-0.29115 z m -3.187086,-1.08993 c 0,-0.11951 1.291544,-0.18955 3.495533,-0.18955 2.125884,0 3.541432,0.0743 3.612681,0.18955 0.07654,0.12384 -1.135351,0.18956 -3.495533,0.18956 -2.282085,0 -3.612681,-0.0698 -3.612681,-0.18956 z m 7.582088,-0.53928 c 0,-0.48432 0.125238,-0.84216 0.373304,-1.06666 0.322839,-0.29217 0.381377,-0.6356 0.433117,-2.54095 0.04886,-1.79888 0.06727,-1.60317 0.100586,1.06666 l 0.04076,3.26979 h -0.473882 c -0.42331,0 -0.473881,-0.0778 -0.473881,-0.72884 z m -22.177611,0.34973 c 0,-0.10425 0.127948,-0.18955 0.284329,-0.18955 0.06117,0 0.109521,-0.0388 0.147646,-0.15697 0.03813,-0.11814 0.06602,-0.31559 0.08627,-0.63283 0.02025,-0.31724 -2.550214,-0.77195 -2.544543,-1.12418 0.0057,-0.35222 4.601744,-0.81686 4.603277,-1.20069 0.0016,-0.38384 -4.579141,-0.84072 -4.58129,-1.23211 -0.0022,-0.39139 4.643534,-0.81591 4.652621,-1.22688 0.0091,-0.41098 -4.62901,-0.86197 -4.628687,-1.17986 3.27e-4,-0.3179 2.549033,-1.04182 2.549033,-1.04182 v -1.11362 h 8.096186 11.508125 l 0.812768,0.79767 0.812778,0.79768 v 3.56203 3.56202 h -3.673061 c -3.033701,0 -3.714133,0.0495 -3.909034,0.28434 -0.203477,0.24517 1.978481,0.28432 -5.520223,0.28432 -5.671094,0 -8.696194,-0.0659 -8.696195,-0.18955 z"
       id="path826"
       inkscape:connector-curvature="0"
       sodipodi:nodetypes="ccsscccccsccccsscccccscccscccscscccsccscsccssccscscccccscsccsccccccccscscccssccccsscsccccccssscscccscscsccccccccccsssssssscsssssssccccccssccscccsscsscccccsccsssszszzzccccccccscss" />
  </g>
</svg>
