<?xml version="1.0" encoding="UTF-8" standalone="no"?>
<!-- Created with Inkscape (http://www.inkscape.org/) -->

<svg
   xmlns:dc="http://purl.org/dc/elements/1.1/"
   xmlns:cc="http://creativecommons.org/ns#"
   xmlns:rdf="http://www.w3.org/1999/02/22-rdf-syntax-ns#"
   xmlns:svg="http://www.w3.org/2000/svg"
   xmlns="http://www.w3.org/2000/svg"
   xmlns:sodipodi="http://sodipodi.sourceforge.net/DTD/sodipodi-0.dtd"
   xmlns:inkscape="http://www.inkscape.org/namespaces/inkscape"
   width="354.79831mm"
   height="132.29167mm"
   viewBox="0 0 354.7983 132.29167"
   version="1.1"
   id="svg8"
   inkscape:version="0.92.4 (unknown)"
   sodipodi:docname="fast_truck.svg">
  <defs
     id="defs2" />
  <sodipodi:namedview
     id="base"
     pagecolor="#ffffff"
     bordercolor="#666666"
     borderopacity="1.0"
     inkscape:pageopacity="0.0"
     inkscape:pageshadow="2"
     inkscape:zoom="0.70000001"
     inkscape:cx="705.17409"
     inkscape:cy="58.911976"
     inkscape:document-units="mm"
     inkscape:current-layer="layer1"
     showgrid="false"
     fit-margin-top="0"
     fit-margin-left="0"
     fit-margin-right="0"
     fit-margin-bottom="0"
     inkscape:window-width="1920"
     inkscape:window-height="1016"
     inkscape:window-x="0"
     inkscape:window-y="36"
     inkscape:window-maximized="1" />
  <metadata
     id="metadata5">
    <rdf:RDF>
      <cc:Work
         rdf:about="">
        <dc:format>image/svg+xml</dc:format>
        <dc:type
           rdf:resource="http://purl.org/dc/dcmitype/StillImage" />
        <dc:title />
      </cc:Work>
    </rdf:RDF>
  </metadata>
  <g
     inkscape:label="Layer 1"
     inkscape:groupmode="layer"
     id="layer1"
     transform="translate(93.546113,-37.948883)">
    <path
       style="fill:#333333;stroke-width:1.97450268;fill-opacity:1"
       d="m -56.499401,165.03802 c -5.050955,-6.42127 -5.169724,-10.79993 -0.45097,-16.62732 7.199098,-8.89052 24.001725,-3.31746 24.001725,7.96082 0,6.13993 -7.702665,13.86903 -13.821523,13.86903 -3.737851,0 -7.01556,-1.75269 -9.729202,-5.20253 z m 15.720263,-4.79619 c 1.618888,-3.02486 1.574477,-4.80598 -0.172314,-6.91075 -5.538635,-6.67366 -15.850546,-0.63956 -11.809814,6.91075 1.199544,2.24141 3.895523,4.07522 5.991053,4.07522 2.095537,0 4.791514,-1.83381 5.991059,-4.07522 z m 17.846284,4.79619 c -5.050963,-6.42127 -5.169724,-10.79993 -0.45097,-16.62732 7.199096,-8.89052 24.00172468,-3.31746 24.00172468,7.96082 0,6.13993 -7.70266458,13.86903 -13.82152368,13.86903 -3.737851,0 -7.015567,-1.75269 -9.729202,-5.20253 z m 15.7202617,-4.79619 c 1.6188881,-3.02486 1.5744777,-4.80598 -0.1723134,-6.91075 -5.5386343,-6.67366 -15.8505453,-0.63956 -11.8098133,6.91075 1.199544,2.24141 3.895514,4.07522 5.991052,4.07522 2.095537,0 4.7915147,-1.83381 5.9910598,-4.07522 z M 93.858868,167.1669 c -6.442538,-4.51254 -5.99888,-15.11791 0.858134,-20.51164 12.578958,-9.89463 27.827398,8.28193 16.472988,19.63634 -4.73381,4.73388 -11.345525,5.06776 -17.331122,0.8753 z m 13.303432,-5.71672 c 4.11164,-4.95418 1.66843,-9.96739 -4.85754,-9.96739 -4.079847,0 -6.077907,1.08247 -6.553131,3.55022 -0.783954,4.07075 2.895822,9.28404 6.553131,9.28404 1.36299,0 3.54888,-1.29008 4.85754,-2.86687 z m 17.84926,4.84142 c -11.3544,-11.35441 3.89402,-29.53097 16.47298,-19.63634 3.82516,3.00888 5.2465,5.92999 5.2465,10.78238 0,11.50545 -13.54597,17.02739 -21.71948,8.85396 z m 13.74276,-4.84142 c 4.11164,-4.95418 1.66851,-9.96739 -4.85754,-9.96739 -4.07985,0 -6.07791,1.08247 -6.55314,3.55022 -0.78395,4.07075 2.89583,9.28404 6.55314,9.28404 1.36307,0 3.54896,-1.29008 4.85754,-2.86687 z m 84.98232,4.84142 c -11.35433,-11.35441 3.8941,-29.53097 16.47302,-19.63634 3.82516,3.00888 5.2465,5.92999 5.2465,10.78238 0,11.50545 -13.54601,17.02739 -21.71952,8.85396 z m 13.74281,-4.84142 c 4.11164,-4.95418 1.66843,-9.96739 -4.85752,-9.96739 -4.07985,0 -6.07791,1.08247 -6.55313,3.55022 -0.78396,4.07075 2.89582,9.28404 6.55313,9.28404 1.36296,0 3.54885,-1.29008 4.85752,-2.86687 z m -301.793105,-10.46097 -0.227089,-12.34067 h 34.5538 34.5537927 v 5.9235 c 0,7.18598 -0.4644031,7.25412 -6.7312541,0.98725 -3.1359778,-3.13597 -7.1620606,-4.93628 -11.0392696,-4.93628 -3.877202,0 -7.903291,1.80031 -11.039261,4.93628 -5.597874,5.5979 -7.823904,6.09716 -10.088531,2.26276 -2.087612,-3.53471 -9.246582,-7.19904 -14.064702,-7.19904 -6.301643,0 -12.593135,6.61843 -14.193463,14.93105 -1.383672,7.18717 -1.514164,6.84172 -1.724045,-4.56485 z m 142.217298,0.98724 -0.280596,-11.35344 h 9.060821 9.060747 l -5.111717,6.07501 c -2.811492,3.34127 -5.111792,6.89537 -5.111792,7.89806 0,3.98769 -3.967463,1.53022 -4.229253,-2.61963 -0.153732,-2.44343 -0.916493,-0.88851 -1.694254,3.45537 -1.360746,7.59992 -1.424702,7.46955 -1.694329,-3.45537 z m 136.067927,7.89799 c -0.0978,-3.14239 -2.96904,-3.45538 -31.69949,-3.45538 -17.99477,0 -31.59201,-0.78463 -31.59201,-1.82298 0,-1.00269 -2.3003,-4.55679 -5.1118,-7.89806 l -5.11179,-6.07501 h 16.95881 16.9588 v -39.49 c 0,-26.255893 0.69478,-39.490096 2.07254,-39.490096 5.00411,0 13.77098,6.412486 14.89619,10.895695 1.08449,4.320896 2.29419,4.900373 10.23023,4.900373 4.95016,0 8.5215,0.478359 7.93634,1.063881 -0.58507,0.585075 0.89136,7.471194 3.28105,15.302389 l 4.345,14.238508 10.705,1.39418 c 5.88776,0.76679 14.9255,1.57411 20.08385,1.79403 l 9.37889,0.4 v 15.48283 c 0,9.00561 0.82604,15.48292 1.97447,15.48292 1.08605,0 1.97456,3.10985 1.97456,6.91074 0,6.24113 -0.52613,6.90337 -5.42993,6.83471 -3.91537,-0.0523 -6.53477,-1.83262 -9.39141,-6.37403 -8.6512,-13.75344 -22.80998,-11.53874 -28.96826,4.53127 -1.86105,4.85626 -3.43202,7.27462 -3.49104,5.37417 z m -2.058,-10.36612 c 0,-1.11688 -7.29506,-2.22232 -16.79522,-2.54501 -14.22216,-0.48284 -16.79523,-0.0933 -16.79523,2.54501 0,2.63821 2.57307,3.02806 16.79523,2.54499 9.50016,-0.32238 16.79522,-1.42813 16.79522,-2.54499 z m 6.98351,-16.31986 c 3.48724,-2.44261 3.50881,-17.21619 0.0299,-20.10388 -6.82605,-5.66508 -12.19038,8.03634 -6.96732,17.79575 2.19493,4.10119 3.67485,4.59358 6.93791,2.30813 z m 10.18507,-12.78104 c -0.47238,-2.45613 -0.87663,-0.91157 -0.89857,3.43239 -0.0224,4.34388 0.36492,6.35343 0.85873,4.4656 0.49402,-1.88777 0.51194,-5.44187 0.0373,-7.89799 z m 6.50147,2.44507 c 0,-3.25791 -0.88851,-5.9235 -1.97445,-5.9235 -1.08596,0 -1.97447,2.66559 -1.97447,5.9235 0,3.25799 0.88851,5.92351 1.97447,5.92351 1.08594,0 1.97445,-2.66552 1.97445,-5.92351 z m 5.92351,-2.09104 c 0,-2.10784 -0.88851,-3.83246 -1.97448,-3.83246 -1.08597,0 -1.97448,2.2738 -1.97448,5.05283 0,2.86567 0.85463,4.52455 1.97448,3.83246 1.08597,-0.67089 1.97448,-2.94493 1.97448,-5.05283 z m -49.36251,-0.87067 c 0,-1.62896 -1.33277,-2.96179 -2.96172,-2.96179 -1.62903,0 -2.96179,1.33283 -2.96179,2.96179 0,1.62895 1.33276,2.96171 2.96179,2.96171 1.62895,0 2.96172,-1.33276 2.96172,-2.96171 z m 19.745,-14.1856 c 0,-0.74329 -1.44985,-6.518662 -3.22193,-12.834257 l -3.22195,-11.482985 h -9.61231 -9.61232 v 12.834254 12.834328 h 12.83425 c 7.05888,0 12.83426,-0.60821 12.83426,-1.35134 z m -99.09284,40.34776 -5.30388,-5.42993 h 11.17314 c 10.61119,0 10.95537,0.15299 6.84312,3.03292 -2.38148,1.66806 -5.0226,4.11149 -5.86917,5.42985 -1.10262,1.71716 -3.04358,0.85694 -6.84321,-3.03284 z M 79.597972,134.69951 c 0,-1.24493 13.453583,-1.97448 36.411798,-1.97448 22.14462,0 36.88992,0.77366 37.63209,1.97448 0.79724,1.28999 -11.82657,1.97455 -36.4118,1.97455 -23.771714,0 -37.632088,-0.72687 -37.632088,-1.97455 z m 78.980078,-5.61746 c 0,-5.045 1.30456,-8.77254 3.88858,-11.11105 3.36291,-3.04344 3.97268,-6.62083 4.51164,-26.468211 0.50896,-18.738359 0.70075,-16.699702 1.04777,11.111041 l 0.42462,34.06023 h -4.93627 c -4.40948,0 -4.93626,-0.81022 -4.93626,-7.59201 z m -231.01678,3.64298 c 0,-1.08597 1.332791,-1.97448 2.961754,-1.97448 0.637164,0 1.14085,-0.40448 1.537985,-1.63515 0.397164,-1.2306 0.687687,-3.28738 0.898635,-6.59194 0.210895,-3.30455 -26.564726,-8.04112 -26.505659,-11.71015 0.05895,-3.66902 47.934839,-8.50896 47.950809,-12.507237 0.01641,-3.998284 -47.699391,-8.757463 -47.721779,-12.834478 -0.02239,-4.077015 48.370145,-8.499031 48.464808,-12.780001 0.0947,-4.281045 -48.21886,-8.978806 -48.215487,-12.29024 0.0034,-3.311447 26.552426,-10.852261 26.552426,-10.852261 V 37.948883 H 17.820028 137.69633 l 8.46634,8.309105 8.46643,8.309105 V 91.671595 128.776 h -38.26105 c -31.601048,0 -38.688884,0.51567 -40.719108,2.9618 -2.119552,2.55387 20.60918,2.96171 -57.502316,2.96171 -59.073899,0 -90.585356,-0.68657 -90.585356,-1.97448 z"
       id="path826"
       inkscape:connector-curvature="0"
       sodipodi:nodetypes="ccsscccccsccccsscccccscccscccscscccsccscsccssccscscccccscsccsccccccccscscccssccccsscsccccccssscscccscscsccccccccccsssssssscsssssssccccccssccscccsscsscccccsccsssszszzzccccccccscss" />
  </g>
</svg>
