<?xml version="1.0" encoding="UTF-8" standalone="no"?>
<!-- Created with Inkscape (http://www.inkscape.org/) -->

<svg
   xmlns:dc="http://purl.org/dc/elements/1.1/"
   xmlns:cc="http://creativecommons.org/ns#"
   xmlns:rdf="http://www.w3.org/1999/02/22-rdf-syntax-ns#"
   xmlns:svg="http://www.w3.org/2000/svg"
   xmlns="http://www.w3.org/2000/svg"
   xmlns:sodipodi="http://sodipodi.sourceforge.net/DTD/sodipodi-0.dtd"
   xmlns:inkscape="http://www.inkscape.org/namespaces/inkscape"
   width="354.79831mm"
   height="132.29167mm"
   viewBox="0 0 354.7983 132.29167"
   version="1.1"
   id="svg8"
   inkscape:version="0.92.4 (unknown)"
   sodipodi:docname="normal_truck.svg"
   inkscape:export-filename="/home/tim/Downloads/normal truck.svg.png"
   inkscape:export-xdpi="96"
   inkscape:export-ydpi="96">
  <defs
     id="defs2" />
  <sodipodi:namedview
     id="base"
     pagecolor="#ffffff"
     bordercolor="#666666"
     borderopacity="1.0"
     inkscape:pageopacity="0.0"
     inkscape:pageshadow="2"
     inkscape:zoom="0.70000001"
     inkscape:cx="155.29173"
     inkscape:cy="-6.0721573"
     inkscape:document-units="mm"
     inkscape:current-layer="layer1"
     showgrid="false"
     fit-margin-top="0"
     fit-margin-left="0"
     fit-margin-right="0"
     fit-margin-bottom="0"
     inkscape:window-width="1920"
     inkscape:window-height="1016"
     inkscape:window-x="0"
     inkscape:window-y="36"
     inkscape:window-maximized="1" />
  <metadata
     id="metadata5">
    <rdf:RDF>
      <cc:Work
         rdf:about="">
        <dc:format>image/svg+xml</dc:format>
        <dc:type
           rdf:resource="http://purl.org/dc/dcmitype/StillImage" />
        <dc:title />
      </cc:Work>
    </rdf:RDF>
  </metadata>
  <g
     inkscape:label="Layer 1"
     inkscape:groupmode="layer"
     id="layer1"
     transform="translate(-58.960847,17.860927)">
    <path
       style="fill:#333333;stroke-width:1.97450268;fill-opacity:1"
       d="m 85.453869,109.2282 c -5.050956,-6.42127 -5.169724,-10.799923 -0.45097,-16.627311 7.199097,-8.890523 24.001721,-3.317463 24.001721,7.960821 0,6.13993 -7.70266,13.86903 -13.82152,13.86903 -3.737851,0 -7.01556,-1.75269 -9.729201,-5.20254 z m 15.720261,-4.79619 c 1.61889,-3.02485 1.57448,-4.805972 -0.17231,-6.910748 -5.538638,-6.673657 -15.850548,-0.639552 -11.809817,6.910748 1.199545,2.24142 3.895523,4.07522 5.991052,4.07522 2.095538,0 4.791515,-1.8338 5.991065,-4.07522 z m 17.84628,4.79619 c -5.05096,-6.42127 -5.16972,-10.799923 -0.45097,-16.627311 7.1991,-8.890523 24.00173,-3.317463 24.00173,7.960821 0,6.13993 -7.70267,13.86903 -13.82153,13.86903 -3.73785,0 -7.01556,-1.75269 -9.7292,-5.20254 z m 15.72026,-4.79619 c 1.61889,-3.02485 1.57448,-4.805972 -0.17231,-6.910748 -5.53864,-6.673657 -15.85055,-0.639552 -11.80981,6.910748 1.19954,2.24142 3.89551,4.07522 5.99105,4.07522 2.09554,0 4.79151,-1.8338 5.99106,-4.07522 z m 101.07146,6.92507 c -6.44254,-4.51253 -5.99888,-15.117908 0.85813,-20.511639 12.57896,-9.894627 27.82739,8.281941 16.47299,19.636339 -4.73381,4.73389 -11.34552,5.06777 -17.33112,0.8753 z m 13.30343,-5.71671 c 4.11164,-4.95418 1.66844,-9.967392 -4.85753,-9.967392 -4.07986,0 -6.07792,1.082463 -6.55314,3.550224 -0.78395,4.070748 2.89582,9.284028 6.55314,9.284028 1.36298,0 3.54888,-1.29007 4.85753,-2.86686 z m 17.84926,4.84141 c -11.35441,-11.354398 3.89403,-29.530966 16.47298,-19.636339 3.82515,3.008881 5.24649,5.93 5.24649,10.782389 0,11.50545 -13.54597,17.02739 -21.71947,8.85395 z m 13.74276,-4.84141 c 4.11164,-4.95418 1.66851,-9.967392 -4.85754,-9.967392 -4.07985,0 -6.07791,1.082463 -6.55313,3.550224 -0.78396,4.070748 2.89582,9.284028 6.55313,9.284028 1.36306,0 3.54896,-1.29007 4.85754,-2.86686 z m 84.98231,4.84141 c -11.35433,-11.354398 3.89411,-29.530966 16.47303,-19.636339 3.82515,3.008881 5.2465,5.93 5.2465,10.782389 0,11.50545 -13.54602,17.02739 -21.71953,8.85395 z m 13.74281,-4.84141 c 4.11164,-4.95418 1.66843,-9.967392 -4.85751,-9.967392 -4.07985,0 -6.07791,1.082463 -6.55313,3.550224 -0.78396,4.070748 2.89582,9.284028 6.55313,9.284028 1.36296,0 3.54885,-1.29007 4.85751,-2.86686 z M 77.639615,95.179396 77.412525,82.838724 h 34.553795 34.55379 v 5.923508 c 0,7.18597 -0.4644,7.254105 -6.73125,0.987239 -3.13598,-3.13597 -7.16206,-4.936269 -11.03927,-4.936269 -3.8772,0 -7.90329,1.800299 -11.03926,4.936269 -5.59787,5.59791 -7.8239,6.097164 -10.08853,2.262761 -2.08761,-3.534701 -9.24658,-7.19903 -14.0647,-7.19903 -6.301642,0 -12.593134,6.618433 -14.193463,14.931045 -1.383671,7.187163 -1.514164,6.841713 -1.724045,-4.564851 z m 142.217295,0.987239 -0.2806,-11.353433 h 9.06082 9.06075 l -5.11172,6.075 c -2.81149,3.341269 -5.11179,6.895374 -5.11179,7.89806 0,3.987688 -3.96746,1.530228 -4.22926,-2.619627 -0.15373,-2.443433 -0.91649,-0.888507 -1.69425,3.455373 -1.36075,7.599922 -1.4247,7.469552 -1.69433,-3.455373 z m 136.06791,7.897985 c -0.0978,-3.14239 -2.96903,-3.45537 -31.69948,-3.45537 -17.99478,0 -31.59202,-0.78463 -31.59202,-1.822988 0,-1.002686 -2.30029,-4.556791 -5.11179,-7.89806 l -5.11179,-6.075 h 16.95881 16.95881 V 45.323201 c 0,-26.255896 0.69477,-39.4900974 2.07253,-39.4900974 5.00411,0 13.77097,6.4124854 14.8962,10.8956944 1.08447,4.320895 2.29418,4.900373 10.23022,4.900373 4.95015,0 8.52149,0.478358 7.93634,1.063881 -0.58507,0.585074 0.89135,7.471194 3.28105,15.302388 l 4.345,14.238508 10.705,1.394179 c 5.88776,0.766791 14.92549,1.574104 20.08385,1.79403 l 9.37888,0.4 v 15.482836 c 0,9.005597 0.82605,15.482911 1.97448,15.482911 1.08604,0 1.97455,3.10985 1.97455,6.910746 0,6.24112 -0.52612,6.90336 -5.42992,6.8347 -3.91538,-0.0522 -6.53478,-1.83261 -9.39142,-6.374028 -8.6512,-13.753433 -22.80997,-11.538732 -28.96826,4.531268 -1.86104,4.85627 -3.43201,7.27463 -3.49104,5.37418 z m -2.05799,-10.366119 c 0,-1.116866 -7.29507,-2.222314 -16.79522,-2.545 -14.22217,-0.482836 -16.79523,-0.09328 -16.79523,2.545 0,2.638209 2.57306,3.02806 16.79523,2.545 9.50015,-0.322388 16.79522,-1.428135 16.79522,-2.545 z m 6.98351,-16.319851 c 3.48724,-2.442612 3.50881,-17.216195 0.0299,-20.103881 -6.82604,-5.665075 -12.19037,8.036343 -6.96731,17.795746 2.19492,4.101194 3.67485,4.593583 6.93791,2.308135 z m 10.18508,-12.781045 c -0.47239,-2.45612 -0.87665,-0.911567 -0.89859,3.432388 -0.0224,4.343881 0.36493,6.353433 0.85874,4.465597 0.49402,-1.887761 0.51194,-5.441866 0.0373,-7.897985 z m 6.50146,2.445074 c 0,-3.25791 -0.88851,-5.923507 -1.97445,-5.923507 -1.08597,0 -1.97448,2.665597 -1.97448,5.923507 0,3.257986 0.88851,5.923508 1.97448,5.923508 1.08594,0 1.97445,-2.665522 1.97445,-5.923508 z m 5.92351,-2.091044 c 0,-2.107836 -0.88851,-3.832463 -1.97448,-3.832463 -1.08597,0 -1.97448,2.273806 -1.97448,5.052836 0,2.865671 0.85463,4.524552 1.97448,3.832463 1.08597,-0.670896 1.97448,-2.944926 1.97448,-5.052836 z m -49.36251,-0.870672 c 0,-1.628955 -1.33276,-2.961791 -2.96172,-2.961791 -1.62903,0 -2.96179,1.332836 -2.96179,2.961791 0,1.628955 1.33276,2.961716 2.96179,2.961716 1.62896,0 2.96172,-1.332761 2.96172,-2.961716 z m 19.745,-14.185597 c 0,-0.743284 -1.44985,-6.518657 -3.22194,-12.834254 L 347.399,25.578126 h -9.61232 -9.61231 V 38.41238 51.246709 h 12.83425 c 7.05888,0 12.83426,-0.608209 12.83426,-1.351343 z m -99.09284,40.347762 -5.30388,-5.429926 h 11.17313 c 10.6112,0 10.95538,0.152985 6.84314,3.032911 -2.38149,1.668059 -5.02261,4.111492 -5.86918,5.42985 -1.10261,1.717165 -3.04358,0.856941 -6.84321,-3.032835 z M 221.55123,78.889695 c 0,-1.244926 13.45359,-1.974478 36.4118,-1.974478 22.14462,0 36.88992,0.773657 37.63209,1.974478 0.79723,1.29 -11.82657,1.974552 -36.4118,1.974552 -23.77171,0 -37.63209,-0.726866 -37.63209,-1.974552 z m 78.98008,-5.617463 c 0,-5.045 1.30455,-8.772538 3.88858,-11.111045 3.36291,-3.043433 3.97269,-6.620821 4.51164,-26.46821 0.50896,-18.738358 0.70075,-16.699701 1.04777,11.111045 l 0.42462,34.060225 h -4.93627 c -4.40947,0 -4.93627,-0.810224 -4.93627,-7.592015 z M 69.51454,76.915217 c 0,-1.08597 1.332791,-1.974478 2.961754,-1.974478 0.637164,0 1.140851,-0.404477 1.537985,-1.635149 0.466567,-51.430225 0.189701,-33.473433 1.423754,-91.166517 h 84.335257 119.8763 l 8.46635,8.309105 8.46641,8.3091046 V 35.861783 72.966187 h -38.26104 c -31.60105,0 -38.68888,0.515672 -40.71911,2.961791 -2.11955,2.553881 20.60918,2.961717 -57.50231,2.961717 -59.07389,0 -90.58535,-0.686568 -90.58535,-1.974478 z"
       id="path826"
       inkscape:connector-curvature="0"
       sodipodi:nodetypes="ccsscccccsccccsscccccscccscccscscccsccscsccssccscscccccscsccsccccccccscscccssccccsscsccccccssscscccscscsccccccccccsssssssscsssssssccccccssccscccsscsscccccsccssccccccccscss" />
  </g>
</svg>
