<?xml version="1.0" encoding="UTF-8" standalone="no"?>
<!-- Created with Inkscape (http://www.inkscape.org/) -->

<svg
   xmlns:dc="http://purl.org/dc/elements/1.1/"
   xmlns:cc="http://creativecommons.org/ns#"
   xmlns:rdf="http://www.w3.org/1999/02/22-rdf-syntax-ns#"
   xmlns:svg="http://www.w3.org/2000/svg"
   xmlns="http://www.w3.org/2000/svg"
   xmlns:sodipodi="http://sodipodi.sourceforge.net/DTD/sodipodi-0.dtd"
   xmlns:inkscape="http://www.inkscape.org/namespaces/inkscape"
   width="18.58869mm"
   height="21.166685mm"
   viewBox="0 0 18.58869 21.166685"
   version="1.1"
   id="svg8"
   inkscape:version="0.92.4 (unknown)"
   sodipodi:docname="safety.svg">
  <defs
     id="defs2" />
  <sodipodi:namedview
     id="base"
     pagecolor="#ffffff"
     bordercolor="#666666"
     borderopacity="1.0"
     inkscape:pageopacity="0.0"
     inkscape:pageshadow="2"
     inkscape:zoom="0.7"
     inkscape:cx="396.88321"
     inkscape:cy="-123.25195"
     inkscape:document-units="mm"
     inkscape:current-layer="layer1"
     showgrid="false"
     fit-margin-top="0"
     fit-margin-left="0"
     fit-margin-right="0"
     fit-margin-bottom="0"
     inkscape:window-width="1920"
     inkscape:window-height="1016"
     inkscape:window-x="0"
     inkscape:window-y="36"
     inkscape:window-maximized="1" />
  <metadata
     id="metadata5">
    <rdf:RDF>
      <cc:Work
         rdf:about="">
        <dc:format>image/svg+xml</dc:format>
        <dc:type
           rdf:resource="http://purl.org/dc/dcmitype/StillImage" />
        <dc:title></dc:title>
      </cc:Work>
    </rdf:RDF>
  </metadata>
  <g
     inkscape:label="Layer 1"
     inkscape:groupmode="layer"
     id="layer1"
     transform="translate(-29.844173,-131.60014)">
    <path
       style="color:#000000;font-style:normal;font-variant:normal;font-weight:normal;font-stretch:normal;font-size:medium;line-height:normal;font-family:sans-serif;font-variant-ligatures:normal;font-variant-position:normal;font-variant-caps:normal;font-variant-numeric:normal;font-variant-alternates:normal;font-feature-settings:normal;text-indent:0;text-align:start;text-decoration:none;text-decoration-line:none;text-decoration-style:solid;text-decoration-color:#000000;letter-spacing:normal;word-spacing:normal;text-transform:none;writing-mode:lr-tb;direction:ltr;text-orientation:mixed;dominant-baseline:auto;baseline-shift:baseline;text-anchor:start;white-space:normal;shape-padding:0;clip-rule:nonzero;display:inline;overflow:visible;visibility:visible;opacity:1;isolation:auto;mix-blend-mode:normal;color-interpolation:sRGB;color-interpolation-filters:linearRGB;solid-color:#000000;solid-opacity:1;vector-effect:none;fill:#e94615;fill-opacity:1;fill-rule:nonzero;stroke:none;stroke-width:0.60258776;stroke-linecap:butt;stroke-linejoin:round;stroke-miterlimit:4;stroke-dasharray:none;stroke-dashoffset:0;stroke-opacity:1;color-rendering:auto;image-rendering:auto;shape-rendering:auto;text-rendering:auto;enable-background:accumulate"
       d="m 39.133753,131.60018 c -0.05742,0.001 -0.113454,0.0182 -0.161376,0.0498 -3.725224,2.45841 -4.533657,2.79977 -8.847122,3.083 -0.161102,0.0108 -0.28497,0.1465 -0.280989,0.30792 0.07383,2.95577 0.440023,6.58794 1.750228,9.88554 1.310205,3.29759 3.583092,6.26832 7.431187,7.81841 0.07239,0.0293 0.153279,0.0293 0.22567,0 3.848094,-1.55009 6.121167,-4.52082 7.43137,-7.81841 1.310208,-3.2976 1.676209,-6.92977 1.750047,-9.88554 0.004,-0.16142 -0.11989,-0.29712 -0.28099,-0.30792 -4.313462,-0.28323 -5.121897,-0.62459 -8.847123,-3.083 -0.05067,-0.0335 -0.110182,-0.0508 -0.170902,-0.0498 z m 3.132826,6.23451 a 1.0358455,1.0358455 0 0 1 0.895904,1.6145 l -4.32767,6.61496 a 1.0358455,1.0358455 0 0 1 -1.618708,0.14544 l -1.984874,-2.09496 a 1.0358455,1.0358455 0 1 1 1.503676,-1.42473 l 1.083474,1.14374 3.610543,-5.51848 a 1.0358455,1.0358455 0 0 1 0.837655,-0.48047 z"
       id="path819"
       inkscape:connector-curvature="0" />
  </g>
</svg>
